{
  "accessors": [
    {
      "bufferView": 2,
      "componentType": 5126,
      "count": 15744,
      "max": [
        1.6794379949569702,
        1.0813030004501343,
        9.850166320800781
      ],
      "min": [
        -1.6794379949569702,
        -0.7715550065040588,
        0.7017160058021545
      ],
      "type": "VEC3"
    },
    {
      "bufferView": 2,
      "byteOffset": 188928,
      "componentType": 5126,
      "count": 15744,
      "max": [
        0.9999426603317261,
        0.9999048709869385,
        0.999562680721283
      ],
      "min": [
        -0.9999426603317261,
        -0.999995231628418,
        -0.9998606443405151
      ],
      "type": "VEC3"
    },
    {
      "bufferView": 1,
      "componentType": 5126,
      "count": 15744,
      "max": [
        0.875,
        0.6250100135803223
      ],
      "min": [
        -0.31958600878715515,
        -0.28060799837112427
      ],
      "type": "VEC2"
    },
    {
      "bufferView": 0,
      "componentType": 5125,
      "count": 91248,
      "type": "SCALAR"
    }
  ],
  "asset": {
    "extras": {
      "author": "gus_thewise (https://sketchfab.com/bratokreper)",
      "license": "CC-BY-4.0 (http://creativecommons.org/licenses/by/4.0/)",
      "source": "https://sketchfab.com/3d-models/female-body-base-mesh-4bd94f4c0406464c91fdf55db6ca8d18",
      "title": "Female body base mesh"
    },
    "generator": "Sketchfab-12.65.0",
    "version": "2.0"
  },
  "bufferViews": [
    {
      "buffer": 0,
      "byteLength": 364992,
      "name": "floatBufferViews",
      "target": 34963
    },
    {
      "buffer": 0,
      "byteLength": 125952,
      "byteOffset": 364992,
      "byteStride": 8,
      "name": "floatBufferViews",
      "target": 34962
    },
    {
      "buffer": 0,
      "byteLength": 377856,
      "byteOffset": 490944,
      "byteStride": 12,
      "name": "floatBufferViews",
      "target": 34962
    }
  ],
  "buffers": [
    {
      "byteLength": 868800,
      "uri": "scene.bin"
    }
  ],
  "materials": [
    {
      "doubleSided": true,
      "name": "Material",
      "pbrMetallicRoughness": {
        "metallicFactor": 0.0,
        "roughnessFactor": 0.6
      }
    }
  ],
  "meshes": [
    {
      "name": "Object_0",
      "primitives": [
        {
          "attributes": {
            "NORMAL": 1,
            "POSITION": 0,
            "TEXCOORD_0": 2
          },
          "indices": 3,
          "material": 0,
          "mode": 4
        }
      ]
    }
  ],
  "nodes": [
    {
      "children": [
        1
      ],
      "matrix": [
        1.0,
        0.0,
        0.0,
        0.0,
        0.0,
        2.220446049250313e-16,
        -1.0,
        0.0,
        0.0,
        1.0,
        2.220446049250313e-16,
        0.0,
        0.0,
        0.0,
        0.0,
        1.0
      ],
      "name": "Sketchfab_model"
    },
    {
      "children": [
        2
      ],
      "name": "female character2.obj.cleaner.materialmerger.gles"
    },
    {
      "mesh": 0,
      "name": "Object_2"
    }
  ],
  "scene": 0,
  "scenes": [
    {
      "name": "Sketchfab_Scene",
      "nodes": [
        0
      ]
    }
  ]
}
